<svg width="24" height="24" viewBox="0 0 24 24" fill="none" xmlns="http://www.w3.org/2000/svg">
<g clip-path="url(#clip0_10_87)">
<path d="M10.425 1.41399C11.3598 0.898488 12.4851 0.862417 13.451 1.31699L13.641 1.41399L20.416 5.40899L20.512 5.47199L20.604 5.54899L20.711 5.62399C21.4133 6.15057 21.8704 6.94072 21.977 7.81199L21.995 8.01399L22 8.21799V15.502C22 16.608 21.43 17.631 20.546 18.195L20.376 18.295L13.573 22.597C12.655 23.101 11.554 23.132 10.569 22.665L10.373 22.565L3.678 18.328C2.70951 17.7985 2.07911 16.8104 2.007 15.709L2 15.502V8.21699C2 7.11099 2.57 6.08899 3.476 5.51199L10.425 1.41399ZM12 15C11.493 15.0001 11.0663 15.3795 11.007 15.883L11 16L11.007 16.127C11.0668 16.63 11.4934 17.0089 12 17.0089C12.5066 17.0089 12.9332 16.63 12.993 16.127L13 16.01L12.993 15.883C12.9337 15.3795 12.507 15.0001 12 15ZM13.368 8.32699C12.1355 7.69688 10.6314 7.99845 9.737 9.05499C9.39318 9.45773 9.42294 10.0587 9.80487 10.4255C10.1868 10.7923 10.7885 10.7978 11.177 10.438L11.348 10.258C11.6502 9.98063 12.0931 9.92078 12.458 10.108C12.8525 10.3076 13.069 10.7426 12.9906 11.1776C12.9121 11.6127 12.5573 11.9447 12.118 11.994L11.886 12.006C11.3579 12.0641 10.9674 12.5251 10.9969 13.0556C11.0264 13.5861 11.4657 14.0009 11.997 14C13.3858 14.0042 14.5958 13.0546 14.9221 11.7047C15.2483 10.3548 14.6054 8.95748 13.368 8.32699Z" fill="#7A8B9A"/>
</g>
<defs>
<clipPath id="clip0_10_87">
<rect width="24" height="24" fill="white"/>
</clipPath>
</defs>
</svg>
