<svg width="20" height="20" viewBox="0 0 20 20" fill="none" xmlns="http://www.w3.org/2000/svg">
<g clip-path="url(#clip0_104_2)">
<path d="M11.4641 13.5179C11.4198 13.4293 11.3755 13.3258 11.3459 13.2077C11.3164 13.0895 11.2868 12.9713 11.2721 12.8383C11.1686 12.9565 11.0505 13.0599 10.9175 13.1633C10.7845 13.2667 10.6368 13.3554 10.4743 13.4293C10.3118 13.5031 10.1345 13.5622 9.92767 13.6065C9.73561 13.6509 9.51401 13.6656 9.27763 13.6656C8.90829 13.6656 8.55373 13.6065 8.24348 13.5031C7.93324 13.3997 7.66731 13.2372 7.43094 13.0451C7.20933 12.8531 7.03205 12.6167 6.89909 12.3508C6.76613 12.0849 6.70703 11.7894 6.70703 11.4791C6.70703 10.7109 6.98773 10.1052 7.5639 9.69154C8.14007 9.26311 8.99693 9.05628 10.1345 9.05628H11.1834V8.62785C11.1834 8.27328 11.0652 7.99258 10.8436 7.78576C10.6073 7.57893 10.2822 7.47551 9.8538 7.47551C9.46969 7.47551 9.18899 7.56415 9.01171 7.72666C8.83442 7.88917 8.74578 8.11077 8.74578 8.39147H6.86954C6.86954 8.08123 6.94341 7.78575 7.07637 7.50506C7.20933 7.22436 7.41616 6.97321 7.68209 6.76638C7.94801 6.55955 8.27303 6.38227 8.65714 6.26408C9.04125 6.14589 9.46969 6.07202 9.97199 6.07202C10.4152 6.07202 10.8289 6.13112 11.213 6.23453C11.5971 6.33795 11.9221 6.50046 12.2028 6.72206C12.4835 6.92889 12.7051 7.19481 12.8528 7.51983C13.0153 7.84485 13.0892 8.21419 13.0892 8.64262V11.7894C13.0892 12.1883 13.1188 12.5133 13.1631 12.7644C13.2074 13.0156 13.2813 13.2372 13.3847 13.4293V13.5474H11.4641V13.5179ZM9.67652 12.203C9.86857 12.203 10.0459 12.1735 10.2084 12.1292C10.3709 12.0849 10.5186 12.0258 10.6516 11.9519C10.7845 11.878 10.8879 11.8042 10.9914 11.7007C11.08 11.6121 11.1539 11.5087 11.213 11.4201V10.1643H10.2527C9.95722 10.1643 9.70606 10.1938 9.49924 10.2529C9.29241 10.312 9.11512 10.3859 8.99693 10.4893C8.86397 10.5927 8.77533 10.7109 8.70146 10.8587C8.64237 11.0064 8.61282 11.1541 8.61282 11.3166C8.61282 11.5678 8.70146 11.7746 8.87874 11.9519C9.04125 12.1144 9.30718 12.203 9.67652 12.203Z" fill="#7A8B9A"/>
<path d="M9.94268 19.1759C14.9769 19.1759 19.058 15.0948 19.058 10.0606C19.058 5.02637 14.9769 0.945312 9.94268 0.945312C4.90845 0.945312 0.827393 5.02637 0.827393 10.0606C0.827393 15.0948 4.90845 19.1759 9.94268 19.1759Z" stroke="#7A8B9A" stroke-width="1.42596" stroke-miterlimit="10"/>
</g>
<defs>
<clipPath id="clip0_104_2">
<rect width="19.9295" height="20.0034" fill="white"/>
</clipPath>
</defs>
</svg>
