<svg width="24" height="24" viewBox="0 0 24 24" fill="none" xmlns="http://www.w3.org/2000/svg">
<g clip-path="url(#clip0_89_2)">
<path d="M10.5599 1.92004C7.91316 1.92004 5.75988 4.07332 5.75988 6.72004C5.75988 9.36676 7.91316 11.52 10.5599 11.52C13.2066 11.52 15.3599 9.36676 15.3599 6.72004C15.3599 4.07332 13.2066 1.92004 10.5599 1.92004ZM18.9664 11.52C18.415 11.5202 17.8642 11.7298 17.4449 12.1491L11.6764 17.9166C11.5272 18.0654 11.419 18.2512 11.3614 18.4538L10.588 21.1613C10.5165 21.4123 10.5855 21.6834 10.7708 21.8682C10.9076 22.005 11.0922 22.0791 11.2808 22.0791C11.3471 22.0791 11.4124 22.0697 11.4777 22.051L14.1871 21.2775C14.3906 21.2195 14.5765 21.1099 14.7224 20.9625L20.4899 15.195C20.896 14.788 21.1199 14.2466 21.1199 13.6716C21.1199 13.0966 20.8955 12.5557 20.4889 12.1491C20.0692 11.7293 19.5178 11.5199 18.9664 11.52ZM5.03988 13.44C3.849 13.44 2.87988 14.4092 2.87988 15.6V15.9666C2.87988 17.0965 3.35004 18.1823 4.16988 18.946C5.1318 19.8412 6.83738 20.8886 9.62426 21.0844C9.63482 21.022 9.64729 20.9598 9.66457 20.8979L10.4371 18.1894C10.5393 17.8304 10.7337 17.5004 10.9986 17.2369L14.7964 13.44H5.03988Z" fill="black"/>
</g>
<defs>
<clipPath id="clip0_89_2">
<rect width="24" height="24" fill="white"/>
</clipPath>
</defs>
</svg>
