<svg width="28" height="28" viewBox="0 0 28 28" fill="none" xmlns="http://www.w3.org/2000/svg">
<g clip-path="url(#clip0_10_96)">
<path d="M8.18988 4.31665C4.98083 4.31665 2.37988 6.91759 2.37988 10.1267V21.7467C2.37988 22.8167 3.24654 23.6833 4.31655 23.6833H8.18988H13.9999H23.6832C24.7417 23.6833 25.6199 22.8051 25.6199 21.7467V10.1267C25.6199 6.92958 23.007 4.31665 19.8099 4.31665H8.18988ZM12.5114 6.25332H19.8099C21.9599 6.25332 23.6832 7.97659 23.6832 10.1267V21.7467H13.9999V10.1267C13.9999 8.63612 13.434 7.28177 12.5114 6.25332ZM17.8732 8.18998C16.8036 8.18998 15.9365 9.05706 15.9365 10.1267C15.9365 11.1962 16.8036 12.0633 17.8732 12.0633V18.8417H19.8099H21.7465V14.9683H19.8099V10.1267C19.8099 9.05706 18.9428 8.18998 17.8732 8.18998ZM6.25322 10.1267H10.1265C10.6611 10.1267 11.0949 10.5605 11.0949 11.095C11.0949 11.6295 10.6611 12.0633 10.1265 12.0633H6.25322C5.7187 12.0633 5.28488 11.6295 5.28488 11.095C5.28488 10.5605 5.7187 10.1267 6.25322 10.1267Z" fill="#7A8B9A"/>
</g>
<defs>
<clipPath id="clip0_10_96">
<rect width="28" height="28" fill="white"/>
</clipPath>
</defs>
</svg>
