<svg width="24" height="24" viewBox="0 0 24 24" fill="none" xmlns="http://www.w3.org/2000/svg">
<g clip-path="url(#clip0_10_82)">
<path d="M12 2.18945C6.49963 2.18945 2.04004 6.64904 2.04004 12.1495C2.04004 16.8165 5.2538 20.7217 9.5864 21.8024C9.53992 21.6679 9.51004 21.5119 9.51004 21.3185V19.6161C9.10583 19.6161 8.42855 19.6161 8.2584 19.6161C7.57697 19.6161 6.97107 19.3231 6.67725 18.7787C6.35106 18.1736 6.29462 17.2481 5.4862 16.6821C5.24633 16.4937 5.42893 16.2787 5.70532 16.3078C6.21577 16.4522 6.63907 16.8024 7.03747 17.322C7.43421 17.8424 7.62096 17.9603 8.36215 17.9603C8.72154 17.9603 9.25938 17.9395 9.76568 17.8599C10.0379 17.1685 10.5085 16.5319 11.0837 16.2314C7.76704 15.8903 6.18423 14.2402 6.18423 12.0001C6.18423 11.0356 6.59508 10.1027 7.29311 9.31666C7.06403 8.53646 6.77602 6.94535 7.38109 6.33945C8.87343 6.33945 9.77564 7.30723 9.99227 7.56868C10.7359 7.31387 11.5527 7.16945 12.4109 7.16945C13.2708 7.16945 14.0908 7.31387 14.8361 7.57034C15.0503 7.31055 15.9533 6.33945 17.449 6.33945C18.0565 6.94618 17.7652 8.54393 17.5336 9.32247C18.2275 10.1068 18.6359 11.0373 18.6359 12.0001C18.6359 14.2386 17.0556 15.8878 13.7439 16.2306C14.6552 16.7062 15.32 18.0425 15.32 19.0492V21.3185C15.32 21.4048 15.3009 21.467 15.291 21.5409C19.1721 20.1805 21.96 16.4953 21.96 12.1495C21.96 6.64904 17.5004 2.18945 12 2.18945Z" fill="#7A8B9A"/>
</g>
<defs>
<clipPath id="clip0_10_82">
<rect width="24" height="24" fill="white"/>
</clipPath>
</defs>
</svg>
