<svg width="433" height="433" viewBox="0 0 433 433" fill="none" xmlns="http://www.w3.org/2000/svg">
<circle cx="216.122" cy="216.121" r="183.571" fill="#FF9191" fill-opacity="0.28"/>
<circle cx="216.5" cy="216.5" r="216.5" fill="#FF9191" fill-opacity="0.28"/>
<g clip-path="url(#clip0_98_56)">
<path d="M229.286 274.9C274.552 274.9 311.248 238.21 311.248 192.95C311.248 147.69 274.552 111 229.286 111C184.019 111 147.324 147.69 147.324 192.95C147.324 238.21 184.019 274.9 229.286 274.9Z" fill="#F2F2F2"/>
<path d="M282.847 147.648H132.703C132.381 147.641 132.126 147.375 132.133 147.053C132.14 146.74 132.391 146.489 132.703 146.482H282.847C283.169 146.489 283.424 146.756 283.417 147.078C283.411 147.39 283.159 147.641 282.847 147.648Z" fill="#CACACA"/>
<path d="M231.678 167.292H190.173C187.055 167.292 184.528 169.819 184.528 172.936V172.936C184.528 176.053 187.055 178.58 190.173 178.58H231.678C234.796 178.58 237.323 176.053 237.323 172.936C237.323 169.819 234.796 167.292 231.678 167.292Z" fill="white"/>
<path d="M163.36 189.868H258.491C261.609 189.868 264.136 192.394 264.136 195.512C264.136 198.629 261.609 201.156 258.491 201.156H163.36C160.243 201.156 157.715 198.629 157.715 195.512C157.715 192.394 160.243 189.868 163.36 189.868Z" fill="white"/>
<path d="M163.36 212.443H258.491C261.609 212.443 264.136 214.97 264.136 218.087C264.136 221.204 261.609 223.731 258.491 223.731H163.36C160.243 223.731 157.715 221.204 157.715 218.087C157.715 214.97 160.243 212.443 163.36 212.443Z" fill="white"/>
<path d="M151.571 323.219L151.347 323.197C143.751 322.413 136.884 318.328 132.571 312.027C131.389 310.272 130.434 308.374 129.726 306.38L129.658 306.19L129.86 306.173C132.263 305.98 134.731 305.572 135.828 305.378L128.756 302.983L128.713 302.773C128.293 300.804 129.115 298.777 130.787 297.655C132.464 296.48 134.688 296.442 136.403 297.56C137.173 298.052 137.978 298.539 138.757 299.01C141.433 300.629 144.2 302.302 146.275 304.592C149.421 308.134 150.8 312.907 150.028 317.58L151.571 323.219Z" fill="#F2F2F2"/>
<path d="M177.276 319.702L180.761 319.702L182.42 306.26L177.275 306.261L177.276 319.702Z" fill="#A0616A"/>
<path d="M177.153 323.338L187.871 323.337V323.202C187.871 320.898 186.003 319.031 183.699 319.031L181.741 317.546L178.088 319.031L177.153 319.031L177.153 323.338Z" fill="#2F2E41"/>
<path d="M149.345 310.05L152.132 312.141L161.527 302.384L157.412 299.298L149.345 310.05Z" fill="#A0616A"/>
<path d="M147.064 312.885L155.637 319.315L155.719 319.207C157.101 317.364 156.728 314.75 154.885 313.368L154.21 311.005L150.397 310.001L149.649 309.44L147.064 312.885Z" fill="#2F2E41"/>
<path d="M160.93 256.624C160.93 256.624 161.122 261.871 161.365 266.08C161.405 266.77 159.788 267.52 159.83 268.27C159.857 268.768 160.161 269.253 160.189 269.772C160.219 270.32 159.8 270.805 159.83 271.372C159.859 271.926 160.337 272.561 160.366 273.128C160.677 279.229 161.804 286.533 160.676 288.574C160.12 289.581 153.033 303.521 153.033 303.521C153.033 303.521 156.981 309.443 158.109 307.469C159.6 304.861 171.083 292.663 171.083 290.334C171.083 288.008 173.74 270.571 173.74 270.571L175.593 280.89L176.442 282.934L176.175 284.135L176.724 285.754L176.754 287.357L177.288 290.334C177.288 290.334 175.681 313.526 176.586 314.172C177.494 314.82 181.891 315.985 182.41 314.82C182.926 313.656 186.286 290.616 186.286 290.616C186.286 290.616 186.827 280.058 187.414 270.244C187.448 269.675 187.848 268.987 187.88 268.425C187.916 267.774 187.662 266.928 187.696 266.296C187.733 265.572 188.054 265.061 188.085 264.367C188.325 259.007 186.979 252.478 186.551 251.836C185.256 249.895 184.091 248.344 184.091 248.344C184.091 248.344 166.655 242.616 161.995 248.437L160.93 256.624Z" fill="#2F2E41"/>
<path d="M178.321 202.663L171.409 201.281L168.183 205.658C162.164 211.575 162.073 216.798 163.148 225.169V236.918L162.37 244.794C162.37 244.794 159.617 250.552 162.457 251.892C165.296 253.233 183.947 253.119 185.728 252.583C187.509 252.048 185.965 251.391 185.497 248.897C184.619 244.213 185.207 246.473 185.267 244.981C186.134 223.586 184.115 214.802 183.91 212.493L180.395 206.118L178.321 202.663Z" fill="#3F3D56"/>
<path d="M214.753 219.913C214.032 221.278 212.342 221.801 210.977 221.08C210.831 221.004 210.693 220.914 210.563 220.813L195.635 230.29L195.678 225.13L210.179 216.716C211.212 215.558 212.988 215.457 214.146 216.49C215.115 217.354 215.366 218.769 214.753 219.913Z" fill="#A0616A"/>
<path d="M172.863 208.638L171.164 208.458C169.594 208.295 168.053 208.968 167.105 210.23C166.742 210.708 166.481 211.257 166.338 211.84L166.337 211.845C165.911 213.602 166.58 215.443 168.034 216.517L173.904 220.844C178.023 226.409 185.765 230.102 194.846 233.101L208.961 224.336L203.968 218.29L194.286 223.478L179.895 212.34L179.887 212.333L174.41 208.805L172.863 208.638Z" fill="#3F3D56"/>
<path d="M175.985 199.269C180.437 199.269 184.046 195.661 184.046 191.21C184.046 186.759 180.437 183.15 175.985 183.15C171.533 183.15 167.924 186.759 167.924 191.21C167.924 195.661 171.533 199.269 175.985 199.269Z" fill="#A0616A"/>
<path d="M176.171 199.271C176.106 199.273 176.041 199.274 175.976 199.276C175.948 199.348 175.918 199.42 175.883 199.49L176.171 199.271Z" fill="#2F2E41"/>
<path d="M178.384 191.433C178.396 191.513 178.416 191.591 178.442 191.667C178.431 191.587 178.412 191.509 178.384 191.433Z" fill="#2F2E41"/>
<path d="M184.149 183.495C183.817 184.525 183.521 183.219 182.429 183.454C181.116 183.736 179.588 183.639 178.513 182.834C176.911 181.659 174.835 181.343 172.955 181.988C171.116 182.638 168.033 183.097 167.554 184.989C167.387 185.646 167.321 186.36 166.917 186.905C166.564 187.381 166.007 187.653 165.541 188.019C163.967 189.257 165.17 192.775 165.915 194.633C166.659 196.492 168.368 197.846 170.247 198.54C172.064 199.211 174.037 199.329 175.976 199.276C176.313 198.402 176.168 197.392 175.889 196.485C175.588 195.504 175.142 194.556 175.016 193.537C174.89 192.518 175.167 191.361 176.021 190.792C176.807 190.268 178.085 190.587 178.383 191.433C178.209 190.376 179.281 189.352 180.386 189.172C181.572 188.979 182.758 189.407 183.941 189.62C185.124 189.833 184.704 184.854 184.149 183.495Z" fill="#2F2E41"/>
<path d="M229.23 204.542C229.981 195.464 223.23 187.495 214.151 186.744C205.072 185.993 197.102 192.743 196.351 201.821C195.599 210.899 202.35 218.867 211.43 219.618C220.509 220.37 228.478 213.62 229.23 204.542Z" fill="#F50000"/>
<path d="M217.124 196.309L212.79 200.642L208.457 196.309C207.756 195.608 206.619 195.608 205.917 196.309C205.216 197.01 205.216 198.148 205.917 198.849L210.25 203.181L205.917 207.514C205.216 208.216 205.217 209.353 205.92 210.054C206.621 210.753 207.756 210.753 208.457 210.054L212.79 205.721L217.124 210.054C217.826 210.754 218.963 210.753 219.664 210.051C220.363 209.35 220.363 208.215 219.664 207.514L215.331 203.181L219.664 198.849C220.365 198.148 220.365 197.01 219.664 196.309C218.962 195.608 217.825 195.608 217.124 196.309Z" fill="white"/>
<path d="M206.29 189.319C206.776 190.783 205.983 192.365 204.518 192.851C204.362 192.903 204.201 192.941 204.039 192.964L200.544 210.295L196.85 206.692L200.816 190.405C200.696 188.858 201.852 187.506 203.399 187.386C204.694 187.285 205.889 188.084 206.29 189.319Z" fill="#A0616A"/>
<path d="M169.152 211.736L167.846 212.837C166.641 213.858 166.06 215.435 166.314 216.993C166.408 217.586 166.623 218.154 166.946 218.66L166.949 218.664C167.921 220.188 169.713 220.98 171.495 220.675L178.682 219.435C185.55 220.316 193.574 217.287 202.026 212.811L205.472 196.559L197.652 195.976L194.694 206.553L176.692 209.225L176.681 209.226L170.343 210.735L169.152 211.736Z" fill="#3F3D56"/>
<path d="M210.073 323.616L122.383 323.715C122.171 323.714 121.999 323.542 122 323.33C122.001 323.118 122.172 322.947 122.383 322.947L210.073 322.848C210.285 322.848 210.456 323.021 210.456 323.233C210.455 323.444 210.284 323.615 210.073 323.616Z" fill="#CACACA"/>
<path d="M140.321 140.264C141.828 140.264 143.05 139.016 143.05 137.475C143.05 135.935 141.828 134.686 140.321 134.686C138.814 134.686 137.592 135.935 137.592 137.475C137.592 139.016 138.814 140.264 140.321 140.264Z" fill="#3F3D56"/>
<path d="M149.748 140.265C151.255 140.265 152.477 139.016 152.477 137.475C152.477 135.935 151.255 134.686 149.748 134.686C148.241 134.686 147.019 135.935 147.019 137.475C147.019 139.016 148.241 140.265 149.748 140.265Z" fill="#3F3D56"/>
<path d="M159.175 140.265C160.682 140.265 161.903 139.016 161.903 137.475C161.903 135.935 160.682 134.686 159.175 134.686C157.668 134.686 156.446 135.935 156.446 137.475C156.446 139.016 157.668 140.265 159.175 140.265Z" fill="#3F3D56"/>
<path d="M169.924 139.68C169.84 139.68 169.756 139.647 169.693 139.583L167.852 137.701C167.729 137.575 167.729 137.375 167.852 137.25L169.693 135.368C169.818 135.24 170.023 135.238 170.149 135.363C170.277 135.487 170.279 135.692 170.154 135.819L168.534 137.475L170.154 139.132C170.279 139.259 170.277 139.463 170.149 139.588C170.087 139.649 170.005 139.68 169.924 139.68Z" fill="#3F3D56"/>
<path d="M173.018 139.68C172.937 139.68 172.855 139.649 172.792 139.588C172.665 139.463 172.663 139.259 172.787 139.132L174.408 137.475L172.787 135.819C172.663 135.692 172.665 135.487 172.792 135.363C172.92 135.238 173.124 135.24 173.249 135.368L175.09 137.25C175.213 137.375 175.213 137.575 175.09 137.701L173.249 139.583C173.186 139.647 173.102 139.68 173.018 139.68Z" fill="#3F3D56"/>
<path d="M269.343 135.009H265.919C265.529 135.009 265.212 135.325 265.212 135.716V139.142C265.212 139.532 265.529 139.849 265.919 139.849H269.343C269.733 139.849 270.053 139.532 270.053 139.142V135.716C270.053 135.325 269.733 135.009 269.343 135.009Z" fill="#3F3D56"/>
<path d="M260.953 135.009H257.529C257.139 135.009 256.823 135.325 256.823 135.716V139.142C256.823 139.532 257.139 139.849 257.529 139.849H260.953C261.344 139.849 261.663 139.532 261.663 139.142V135.716C261.663 135.325 261.344 135.009 260.953 135.009Z" fill="#3F3D56"/>
<path d="M277.249 135.17H273.825C273.434 135.17 273.118 135.486 273.118 135.877V139.303C273.118 139.694 273.434 140.01 273.825 140.01H277.249C277.639 140.01 277.958 139.694 277.958 139.303V135.877C277.958 135.486 277.639 135.17 277.249 135.17Z" fill="#3F3D56"/>
<path d="M225.644 136.474H198.277C197.8 136.474 197.416 136.861 197.416 137.335C197.416 137.809 197.8 138.197 198.277 138.197H225.644C226.118 138.197 226.506 137.809 226.506 137.335C226.506 136.861 226.118 136.474 225.644 136.474Z" fill="#3F3D56"/>
</g>
<defs>
<clipPath id="clip0_98_56">
<rect width="189.248" height="212.715" fill="white" transform="translate(122 111)"/>
</clipPath>
</defs>
</svg>
