<svg width="91" height="105" viewBox="0 0 91 105" fill="none" xmlns="http://www.w3.org/2000/svg">
<path d="M45.208 0L60.3368 26.0893H90.4151L75.3502 52.2352L90.4151 78.2679H60.2235L45.208 104.357L30.1401 78.2679H0.000882138L15.0134 52.2352L0.000882138 26.0893H30.0834L45.208 0Z" fill="#1D3354"/>
<path d="M0 26.09L30.0834 26.0893L45.208 0L60.3368 26.0893L90.4168 26.09L68.0418 39.2047L45.208 51.3854L22.0385 39.2047L0 26.09Z" fill="#D64045"/>
<path d="M45.208 51.3854L68.0418 39.2047L90.4168 26.09L75.3502 52.2352L90.4202 78.2645L60.2235 78.2679L45.208 104.357V51.3854Z" fill="#E6D76B"/>
<path d="M15.063 17.4495L30.1256 26.146V43.5388L15.063 52.2352L0.000293922 43.5388V26.146L15.063 17.4495Z" fill="#E9FFF9"/>
<path d="M0.000293922 26.146L15.063 17.4495L30.1256 26.146L15.063 34.1059L0.000293922 26.146Z" fill="#467599"/>
<path d="M15.063 34.1059L30.1256 26.146L30.1273 43.5377L15.063 52.2352V34.1059Z" fill="#2D61AF"/>
<path d="M45.2031 0L60.2657 8.69643V26.0893L45.2031 34.7857L30.1404 26.0893V8.69643L45.2031 0Z" fill="#E9FFF9"/>
<path d="M30.1404 8.69643L45.2031 0L60.2657 8.69643L45.2031 16.6563L30.1404 8.69643Z" fill="#467599"/>
<path d="M45.2031 16.6563L60.2657 8.69643L60.2674 26.0882L45.2031 34.7857V16.6563Z" fill="#2D61AF"/>
<path d="M15.063 52.2352L30.1256 60.9316V78.3245L15.063 87.0209L0.000293922 78.3245V60.9316L15.063 52.2352Z" fill="#E9FFF9"/>
<path d="M0.000293922 60.9316L15.063 52.2352L30.1256 60.9316L15.063 68.8916L0.000293922 60.9316Z" fill="#467599"/>
<path d="M15.063 68.8916L30.1256 60.9316L30.1273 78.3234L15.063 87.0209V68.8916Z" fill="#2D61AF"/>
<path d="M75.343 52.2352L90.4057 60.9316V78.3245L75.343 87.0209L60.2804 78.3245V60.9316L75.343 52.2352Z" fill="#E9FFF9"/>
<path d="M60.2804 60.9316L75.343 52.2352L90.4057 60.9316L75.343 68.8916L60.2804 60.9316Z" fill="#467599"/>
<path d="M75.343 68.8916L90.4057 60.9316L90.4074 78.3234L75.343 87.0209V68.8916Z" fill="#2D61AF"/>
<path d="M45.2031 69.5713L60.2657 78.2678V95.6606L45.2031 104.357L30.1404 95.6606L30.1401 78.2679L45.2031 69.5713Z" fill="#E9FFF9"/>
<path d="M30.1401 78.2679L45.2031 69.5713L60.2657 78.2678L45.2031 86.2277L30.1401 78.2679Z" fill="#467599"/>
<path d="M45.2031 86.2277L60.2657 78.2678L60.2674 95.6595L45.2031 104.357V86.2277Z" fill="#2D61AF"/>
<path d="M75.343 17.4495L90.4057 26.146V43.5388L75.343 52.2352L60.2804 43.5388V26.146L75.343 17.4495Z" fill="#E9FFF9"/>
<path d="M60.2804 26.146L75.343 17.4495L90.4057 26.146L75.343 34.1059L60.2804 26.146Z" fill="#467599"/>
<path d="M75.343 34.1059L90.4057 26.146L90.4074 43.5377L75.343 52.2352V34.1059Z" fill="#2D61AF"/>
<path d="M45.2031 34.7857L60.2657 43.4822V60.875L45.2031 69.5713L30.1404 60.875V43.4822L45.2031 34.7857Z" fill="#E9FFF9"/>
<path d="M30.1404 43.4822L45.2031 34.7857L60.2657 43.4822L45.2031 51.4421L30.1404 43.4822Z" fill="#467599"/>
<path d="M45.2031 51.4421L60.2657 43.4822L60.2674 60.8739L45.2031 69.5713V51.4421Z" fill="#2D61AF"/>
</svg>
