<svg width="105" height="113" viewBox="0 0 105 113" fill="none" xmlns="http://www.w3.org/2000/svg">
<path d="M52.3847 0L69.7099 28.2831L104.414 28.3344L87.0238 56.505L104.348 84.6656H69.6929L52.4505 113L35.0647 84.6656H0.420873L17.7341 56.505L0.420197 28.2831H35.0481L52.3847 0Z" fill="#3C3C3C"/>
<path d="M0.420197 28.2831H35.0481L52.3847 0L69.7099 28.2831L104.414 28.3344L78.6971 42.522L52.379 55.647L25.7523 42.4094L0.420197 28.2831Z" fill="#767676"/>
<path d="M52.379 55.647L78.6971 42.522L104.414 28.3344L87.0238 56.505L104.42 84.7745L69.6929 84.6656L52.4505 113L52.379 55.647Z" fill="#8A8A8A"/>
<path d="M17.7341 18.8759L35.0481 28.2831L35.065 47.0364L17.7341 56.505L0.420197 47.0977V28.2831L17.7341 18.8759Z" fill="#C8C8C8"/>
<path d="M0.420197 28.2831L17.7341 18.8759L35.0481 28.2831L17.7341 36.8937L0.420197 28.2831Z" fill="#9E9E9E"/>
<path d="M17.7341 36.8937L35.0481 28.2831L35.065 47.0364L17.7341 56.505V36.8937Z" fill="#5E5E5E"/>
<path d="M52.379 0L69.6929 9.40728L69.7099 28.2831L52.379 37.6291L35.0481 28.2831L35.065 9.40728L52.379 0Z" fill="#C8C8C8"/>
<path d="M35.065 9.40728L52.379 0L69.6929 9.40728L52.379 18.0179L35.065 9.40728Z" fill="#9E9E9E"/>
<path d="M52.379 18.0179L69.6929 9.40728L69.7099 28.2831L52.379 37.6291V18.0179Z" fill="#5E5E5E"/>
<path d="M17.7341 56.505L35.065 65.851L35.0647 84.6656L17.7341 94.1341L0.420197 84.7268V65.9123L17.7341 56.505Z" fill="#C8C8C8"/>
<path d="M0.420197 65.9123L17.7341 56.505L35.065 65.851L17.7341 74.5229L0.420197 65.9123Z" fill="#9E9E9E"/>
<path d="M17.7341 74.5229L35.065 65.851L35.0647 84.6656L17.7341 94.1341V74.5229Z" fill="#5E5E5E"/>
<path d="M87.0238 56.505L104.338 65.9123V84.7268L87.0238 94.1341L69.6929 84.6656V65.851L87.0238 56.505Z" fill="#C8C8C8"/>
<path d="M69.6929 65.851L87.0238 56.505L104.338 65.9123L87.0238 74.5229L69.6929 65.851Z" fill="#9E9E9E"/>
<path d="M87.0238 74.5229L104.338 65.9123V84.7268L87.0238 94.1341V74.5229Z" fill="#5E5E5E"/>
<path d="M52.4505 75.2458L69.6929 84.6656V103.48L52.379 112.887L35.065 103.48L35.0647 84.6656L52.4505 75.2458Z" fill="#C8C8C8"/>
<path d="M35.0647 84.6656L52.4505 75.2458L69.6929 84.6656L52.379 93.2761L35.0647 84.6656Z" fill="#9E9E9E"/>
<path d="M52.379 93.2761L69.6929 84.6656V103.48L52.379 112.887V93.2761Z" fill="#5E5E5E"/>
<path d="M87.0238 18.8759L104.338 28.2831V47.0977L87.0238 56.505L69.6929 47.0364L69.7099 28.2831L87.0238 18.8759Z" fill="#C8C8C8"/>
<path d="M69.7099 28.2831L87.0238 18.8759L104.338 28.2831L87.0238 36.8937L69.7099 28.2831Z" fill="#9E9E9E"/>
<path d="M87.0238 36.8937L104.338 28.2831V47.0977L87.0238 56.505V36.8937Z" fill="#5E5E5E"/>
<path d="M52.379 37.6291L69.6929 47.0364V65.851L52.4505 75.2458L35.065 65.851V47.0364L52.379 37.6291Z" fill="#C8C8C8"/>
<path d="M35.065 47.0364L52.379 37.6291L69.6929 47.0364L52.379 55.647L35.065 47.0364Z" fill="#9E9E9E"/>
<path d="M52.379 55.647L69.6929 47.0364V65.851L52.4505 75.2458L52.379 55.647Z" fill="#5E5E5E"/>
</svg>
